<svg width="861" height="493" viewBox="0 0 861 493" fill="none" xmlns="http://www.w3.org/2000/svg">
<path d="M190.347 313.794C181.498 315.675 172.777 309.893 170.904 300.853C169.049 291.873 174.75 283.027 183.603 281.145C192.516 279.25 201.238 285.032 203.097 294.008C204.965 303.053 199.265 311.899 190.347 313.794ZM187.764 268.879C180.373 268.768 173.788 271.347 168.84 275.608C165.322 273.163 160.369 270.395 154.236 268.856C142.466 265.875 124.039 266.457 103.028 286.331C69.5271 318.157 52.2983 394.413 47.8601 416.358C47.204 419.598 49.2773 422.732 52.4761 423.369C55.6293 423.993 58.6731 421.978 59.3247 418.794C63.6353 397.718 80.3993 324.101 110.988 295.053C134.801 272.498 153.361 279.523 161.686 285.042C158.223 292.27 157.662 300.927 161.412 309.445C165.755 319.331 175.78 325.987 186.447 326.061C206.924 326.209 220.635 305.687 213.062 286.539C208.97 276.2 198.745 269.041 187.764 268.879Z" fill="#06B9FF"/>
<path d="M44.3276 460.966C46.1959 470.011 40.4317 478.871 31.5826 480.752C22.6652 482.647 13.9437 476.865 12.0755 467.821C10.2209 458.845 15.9213 449.999 24.8342 448.104C33.6832 446.223 42.4731 451.991 44.3276 460.966ZM60.4263 12.2482C69.2754 10.3671 78.0014 16.1444 79.8697 25.1894C81.7379 34.2344 76.0375 43.0806 67.1884 44.9617C58.271 46.8567 49.5496 41.0748 47.6813 32.0344C45.8131 22.9894 51.5135 14.1432 60.4263 12.2482M129.706 168.352C124.028 156.436 112.468 152.161 104.097 149.083L102.175 148.381C98.1647 146.874 93.3711 145.529 86.6956 143.689C80.02 141.845 71.6813 139.59 60.8547 136.202C48.3375 132.264 41.1926 125.179 39.657 115.094C38.9599 110.726 39.5978 105.873 41.3202 101.27L60.0162 56.9647C63.1239 57.4177 66.3136 57.2929 69.5898 56.5996C84.8 53.3643 94.5285 38.1769 91.3388 22.7491C88.1537 7.32593 73.2306 -2.62491 58.025 0.610396C42.7465 3.85494 33.018 19.0424 36.2076 34.4701C37.8572 42.4521 42.6963 48.9874 49.0529 52.9114L30.4662 96.7775C27.9008 103.572 27.0852 110.546 28.0603 116.933C29.7053 127.203 36.08 140.842 57.3825 147.558C68.3595 150.987 76.8531 153.344 83.6608 155.161C89.9809 156.94 94.6151 158.179 98.11 159.519L100.033 160.217C107.665 163.041 115.589 165.939 119.203 173.5C123.112 181.829 122.907 191.105 118.437 201.911C115.339 209.445 108.681 219.95 100.274 233.261C74.5065 274.141 31.496 342.217 21.4622 436.743C6.80799 440.344 -2.51951 455.166 0.601808 470.261C3.78692 485.689 18.7738 495.621 33.984 492.39C49.1941 489.155 58.9864 473.954 55.8013 458.526C53.3817 446.823 44.241 438.356 33.2914 436.378C43.3206 345.466 85.0506 279.466 110.149 239.63C118.861 225.838 125.728 215.009 129.237 206.491C134.983 192.566 135.128 179.694 129.706 168.352" fill="#06B9FF"/>
<path d="M376.634 142.058V270.342L354.046 252.747L272.746 189.15V270.342H250.159V142.423L272.746 160.018L354.046 223.606V141.873L376.634 142.058Z" fill="white"/>
<path d="M537.23 142.285V206.427C537.23 241.798 508.865 270.57 473.993 270.57C439.125 270.57 410.755 241.798 410.755 206.427V142.285H433.343V206.427C433.343 229.153 451.588 247.664 473.993 247.664C496.398 247.664 514.647 229.153 514.647 206.427V142.285H537.23Z" fill="white"/>
<path d="M697.853 142.47V270.754L675.27 253.158L593.961 189.562V270.754H571.378V142.835L593.961 160.43L675.27 224.018V142.285L697.853 142.47Z" fill="white"/>
<path d="M861 270.57H835.711L824.146 247.664L796.505 192.682L768.855 247.664L757.29 270.57H732.001L743.561 247.664L796.505 142.285L849.435 247.664L861 270.57Z" fill="white"/>
<path d="M340.751 311.528C340.751 312.527 340.537 313.474 340.109 314.375C339.685 315.277 339.088 316.067 338.323 316.76C337.552 317.449 336.646 317.994 335.593 318.41C334.545 318.817 333.383 319.02 332.112 319.02C330.973 319.02 329.952 318.956 329.041 318.826C328.134 318.688 327.277 318.484 326.48 318.188C325.678 317.907 324.912 317.532 324.179 317.075C323.445 316.622 322.684 316.067 321.9 315.425L325.509 311.722C326.562 312.619 327.592 313.243 328.599 313.613C329.606 313.978 330.699 314.154 331.884 314.154C332.362 314.154 332.823 314.089 333.246 313.946C333.675 313.798 334.044 313.604 334.363 313.359C334.682 313.114 334.928 312.832 335.119 312.494C335.301 312.162 335.397 311.796 335.397 311.39C335.397 310.974 335.32 310.595 335.165 310.257C335.014 309.925 334.741 309.61 334.345 309.291C333.953 308.982 333.406 308.667 332.704 308.349C332.002 308.025 331.105 307.664 330.011 307.267C329.05 306.906 328.12 306.5 327.236 306.047C326.348 305.589 325.573 305.044 324.903 304.397C324.238 303.754 323.7 302.996 323.295 302.132C322.889 301.263 322.684 300.246 322.684 299.068C322.684 297.935 322.907 296.886 323.358 295.934C323.805 294.987 324.42 294.164 325.199 293.489C325.978 292.814 326.881 292.283 327.924 291.904C328.963 291.53 330.084 291.34 331.292 291.34C333.306 291.34 335.001 291.599 336.381 292.14C337.762 292.676 338.988 293.448 340.063 294.474L336.514 298.102C335.857 297.459 335.124 296.96 334.313 296.618C333.502 296.276 332.554 296.101 331.456 296.101C330.95 296.101 330.485 296.179 330.057 296.336C329.633 296.489 329.264 296.692 328.959 296.951C328.649 297.205 328.407 297.506 328.22 297.848C328.034 298.199 327.942 298.555 327.942 298.938C327.942 299.354 328.029 299.743 328.207 300.085C328.38 300.427 328.676 300.759 329.091 301.083C329.505 301.402 330.057 301.725 330.749 302.054C331.437 302.368 332.299 302.719 333.324 303.103C334.641 303.565 335.766 304.078 336.709 304.633C337.653 305.183 338.418 305.793 339.011 306.463C339.598 307.128 340.036 307.877 340.323 308.714C340.605 309.546 340.751 310.488 340.751 311.528Z" fill="#06B9FF"/>
<path d="M389.421 295.943H382.158V317.962H377.004V295.943H369.745V291.34H389.421V295.943Z" fill="#06B9FF"/>
<path d="M434.933 317.962H417.59V291.34H434.933V295.61H422.584V301.97H434.769V306.134H422.584V313.465H434.933V317.962Z" fill="#06B9FF"/>
<path d="M475.355 300.204C475.355 299.511 475.232 298.869 474.977 298.268C474.726 297.676 474.38 297.145 473.943 296.706C473.505 296.257 472.99 295.902 472.402 295.643C471.81 295.375 471.172 295.245 470.498 295.245H467.112V305.302H470.498C471.172 305.302 471.81 305.159 472.402 304.882C472.99 304.604 473.505 304.23 473.943 303.768C474.38 303.301 474.726 302.765 474.977 302.15C475.232 301.54 475.355 300.898 475.355 300.204ZM480.445 300.269C480.445 301.54 480.213 302.719 479.739 303.814C479.269 304.914 478.627 305.876 477.811 306.689C477.005 307.493 476.043 308.126 474.95 308.584C473.851 309.037 472.69 309.263 471.459 309.263H467.112V317.962H462.018V291.34H471.464C472.694 291.34 473.856 291.566 474.954 292.024C476.048 292.477 477.005 293.105 477.816 293.91C478.627 294.704 479.269 295.647 479.743 296.738C480.213 297.829 480.445 299.003 480.445 300.269Z" fill="#06B9FF"/>
<path d="M525.296 311.528C525.296 312.527 525.082 313.474 524.654 314.375C524.23 315.277 523.633 316.067 522.867 316.76C522.097 317.449 521.191 317.994 520.138 318.41C519.09 318.817 517.928 319.02 516.657 319.02C515.518 319.02 514.497 318.956 513.585 318.826C512.679 318.688 511.827 318.484 511.025 318.188C510.223 317.907 509.457 317.532 508.724 317.075C507.99 316.622 507.229 316.067 506.445 315.425L510.054 311.722C511.107 312.619 512.136 313.243 513.143 313.613C514.151 313.978 515.244 314.154 516.429 314.154C516.907 314.154 517.368 314.089 517.791 313.946C518.22 313.798 518.589 313.604 518.908 313.359C519.227 313.114 519.473 312.832 519.664 312.494C519.846 312.162 519.942 311.796 519.942 311.39C519.942 310.974 519.865 310.595 519.71 310.257C519.559 309.925 519.286 309.61 518.889 309.291C518.498 308.982 517.951 308.667 517.249 308.349C516.547 308.025 515.65 307.664 514.556 307.267C513.595 306.906 512.665 306.5 511.781 306.047C510.893 305.589 510.118 305.044 509.448 304.397C508.783 303.754 508.245 302.996 507.84 302.132C507.434 301.263 507.229 300.246 507.229 299.068C507.229 297.935 507.452 296.886 507.903 295.934C508.354 294.987 508.965 294.164 509.744 293.489C510.523 292.814 511.426 292.283 512.469 291.904C513.508 291.53 514.629 291.34 515.836 291.34C517.851 291.34 519.546 291.599 520.926 292.14C522.307 292.676 523.533 293.448 524.608 294.474L521.058 298.102C520.402 297.459 519.669 296.96 518.858 296.618C518.046 296.276 517.099 296.101 516.001 296.101C515.499 296.101 515.03 296.179 514.602 296.336C514.178 296.489 513.809 296.692 513.503 296.951C513.194 297.205 512.952 297.506 512.765 297.848C512.578 298.199 512.487 298.555 512.487 298.938C512.487 299.354 512.574 299.743 512.752 300.085C512.925 300.427 513.221 300.759 513.636 301.083C514.05 301.402 514.602 301.725 515.294 302.054C515.982 302.368 516.844 302.719 517.869 303.103C519.186 303.565 520.311 304.078 521.254 304.633C522.198 305.183 522.963 305.793 523.555 306.463C524.143 307.128 524.581 307.877 524.868 308.714C525.15 309.546 525.296 310.488 525.296 311.528Z" fill="#06B9FF"/>
<path d="M600.418 308.363L596.048 298.772L591.614 308.363H600.418ZM610.433 317.995H604.851L602.418 312.666H589.678L587.212 317.995H581.63L594.043 291.34H598.021L610.433 317.995Z" fill="#06B9FF"/>
<path d="M653.421 317.962H648.331V306.167H637.983V317.962H632.893V291.34H637.983V301.905H648.331V291.34H653.421V317.962Z" fill="#06B9FF"/>
<path d="M694.663 317.962H677.321V291.34H694.663V295.61H682.315V301.97H694.499V306.134H682.315V313.465H694.663V317.962Z" fill="#06B9FF"/>
<path d="M737.118 308.363L732.748 298.772L728.314 308.363H737.118ZM747.133 317.995H741.551L739.118 312.666H726.378L723.912 317.995H718.331L730.743 291.34H734.721L747.133 317.995Z" fill="#06B9FF"/>
<path d="M787.793 304.531C787.811 303.288 787.629 302.114 787.232 301C786.84 299.895 786.271 298.92 785.523 298.088C784.781 297.252 783.869 296.6 782.78 296.119C781.7 295.643 780.479 295.403 779.121 295.403H774.688V313.59H779.121C780.456 313.59 781.655 313.364 782.716 312.911C783.778 312.453 784.68 311.829 785.428 311.016C786.175 310.202 786.745 309.25 787.15 308.15C787.556 307.045 787.77 305.839 787.793 304.531ZM792.951 304.67C792.951 306.509 792.641 308.238 792.026 309.851C791.415 311.459 790.563 312.869 789.469 314.08C788.371 315.291 787.064 316.243 785.542 316.941C784.02 317.643 782.361 317.995 780.566 317.995H769.593V291.34H780.566C782.361 291.34 784.02 291.696 785.542 292.403C787.064 293.12 788.371 294.072 789.469 295.274C790.563 296.471 791.415 297.876 792.026 299.503C792.641 301.125 792.951 302.849 792.951 304.67Z" fill="#06B9FF"/>
</svg>
